<?xml version="1.0" encoding="UTF-8"?>
<svg version="1.1" xmlns="http://www.w3.org/2000/svg" width="32" height="32">
<path d="M0 0 C6.6 0 13.2 0 20 0 C20 1.98 20 3.96 20 6 C21.65 6 23.3 6 25 6 C24.84152588 6.5662207 24.68305176 7.13244141 24.51977539 7.71582031 C23.99214152 10.0345345 23.795844 12.17358397 23.68359375 14.546875 C23.64169922 15.39121094 23.59980469 16.23554688 23.55664062 17.10546875 C23.51732422 17.97816406 23.47800781 18.85085937 23.4375 19.75 C23.39431641 20.63816406 23.35113281 21.52632812 23.30664062 22.44140625 C23.20086385 24.62745963 23.09877454 26.81362089 23 29 C23.66 29 24.32 29 25 29 C25 29.99 25 30.98 25 32 C15.1 32 5.2 32 -5 32 C-5 31.01 -5 30.02 -5 29 C-4.34 29 -3.68 29 -3 29 C-3.13931138 25.9163358 -3.28759281 22.83316583 -3.4375 19.75 C-3.47681641 18.87730469 -3.51613281 18.00460938 -3.55664062 17.10546875 C-3.59853516 16.26113281 -3.64042969 15.41679687 -3.68359375 14.546875 C-3.72025146 13.77182617 -3.75690918 12.99677734 -3.79467773 12.19824219 C-3.99603015 10.0425024 -4.41729297 8.08198525 -5 6 C-3.35 6 -1.7 6 0 6 C0 4.02 0 2.04 0 0 Z " fill="#D67C7F" transform="translate(6,0)"/>
<path d="M0 0 C6.6 0 13.2 0 20 0 C20 1.98 20 3.96 20 6 C21.65 6 23.3 6 25 6 C24.67 6.99 24.34 7.98 24 9 C24 8.34 24 7.68 24 7 C14.76 7 5.52 7 -4 7 C-4.33 7.66 -4.66 8.32 -5 9 C-5 8.01 -5 7.02 -5 6 C-3.35 6 -1.7 6 0 6 C0 4.02 0 2.04 0 0 Z " fill="#5F6162" transform="translate(6,0)"/>
<path d="M0 0 C0.66 0 1.32 0 2 0 C2 6.6 2 13.2 2 20 C6.95 20 11.9 20 17 20 C17 18.02 17 16.04 17 14 C17.33 14 17.66 14 18 14 C18 15.98 18 17.96 18 20 C20.64 20 23.28 20 26 20 C26 13.4 26 6.8 26 0 C26.66 0.33 27.32 0.66 28 1 C27.67 7.27 27.34 13.54 27 20 C27.66 20 28.32 20 29 20 C29 20.99 29 21.98 29 23 C19.1 23 9.2 23 -1 23 C-1 22.01 -1 21.02 -1 20 C-0.34 20 0.32 20 1 20 C0.67 13.4 0.34 6.8 0 0 Z " fill="#57585C" transform="translate(2,9)"/>
<path d="M0 0 C2.64 0 5.28 0 8 0 C8 6.6 8 13.2 8 20 C7.67 19.01 7.34 18.02 7 17 C5.35 17 3.7 17 2 17 C2 15.68 2 14.36 2 13 C3.65 13 5.3 13 7 13 C7 12.34 7 11.68 7 11 C5.35 11 3.7 11 2 11 C1.67 9.35 1.34 7.7 1 6 C1 7.65 1 9.3 1 11 C-0.32 11 -1.64 11 -3 11 C-3 8.03 -3 5.06 -3 2 C-2.67 2.99 -2.34 3.98 -2 5 C-1.34 5 -0.68 5 0 5 C0 3.35 0 1.7 0 0 Z " fill="#B56356" transform="translate(20,9)"/>
<path d="M0 0 C0.99 0 1.98 0 3 0 C3 1.65 3 3.3 3 5 C3.99 5 4.98 5 6 5 C6 3.68 6 2.36 6 1 C6.66 1 7.32 1 8 1 C8 2.32 8 3.64 8 5 C8.99 5 9.98 5 11 5 C11.33 4.01 11.66 3.02 12 2 C12 4.97 12 7.94 12 11 C8.7 11 5.4 11 2 11 C1.67 13.97 1.34 16.94 1 20 C0.67 20 0.34 20 0 20 C0 13.4 0 6.8 0 0 Z " fill="#B86158" transform="translate(4,9)"/>
<path d="M0 0 C5.28 0 10.56 0 16 0 C15.67 1.32 15.34 2.64 15 4 C15 3.34 15 2.68 15 2 C13.68 2 12.36 2 11 2 C11 2.99 11 3.98 11 5 C12.65 5 14.3 5 16 5 C16 5.33 16 5.66 16 6 C10.72 6 5.44 6 0 6 C0.33 5.34 0.66 4.68 1 4 C2.32 4 3.64 4 5 4 C5 3.34 5 2.68 5 2 C3.68 2.33 2.36 2.66 1 3 C0.67 2.01 0.34 1.02 0 0 Z " fill="#BABABA" transform="translate(8,0)"/>
<path d="M0 0 C2.31 0 4.62 0 7 0 C6.67 1.65 6.34 3.3 6 5 C4.68 5.33 3.36 5.66 2 6 C1.67 7.65 1.34 9.3 1 11 C-0.32 11 -1.64 11 -3 11 C-3 8.03 -3 5.06 -3 2 C-2.67 2.99 -2.34 3.98 -2 5 C-1.34 5 -0.68 5 0 5 C0 3.35 0 1.7 0 0 Z " fill="#BD765A" transform="translate(20,9)"/>
<path d="M0 0 C4.29 0 8.58 0 13 0 C13 1.65 13 3.3 13 5 C12.34 5 11.68 5 11 5 C10.67 4.01 10.34 3.02 10 2 C9.34 1.67 8.68 1.34 8 1 C8 2.32 8 3.64 8 5 C7.01 5 6.02 5 5 5 C5 3.68 5 2.36 5 1 C4.34 1 3.68 1 3 1 C3 2.32 3 3.64 3 5 C2.01 5 1.02 5 0 5 C0 3.35 0 1.7 0 0 Z " fill="#E5926D" transform="translate(7,9)"/>
<path d="M0 0 C1.98 0 3.96 0 6 0 C6 2.31 6 4.62 6 7 C4.02 7 2.04 7 0 7 C0 4.69 0 2.38 0 0 Z " fill="#988E95" transform="translate(13,22)"/>
<path d="M0 0 C0.66 0 1.32 0 2 0 C2.33 0.66 2.66 1.32 3 2 C4.32 2 5.64 2 7 2 C7 2.66 7 3.32 7 4 C7.66 4.33 8.32 4.66 9 5 C7.02 5 5.04 5 3 5 C2.67 5.66 2.34 6.32 2 7 C0.02 7 -1.96 7 -4 7 C-4.33 7.66 -4.66 8.32 -5 9 C-5 8.01 -5 7.02 -5 6 C-3.35 6 -1.7 6 0 6 C0 4.02 0 2.04 0 0 Z " fill="#515252" transform="translate(6,0)"/>
<path d="M0 0 C1.65 0 3.3 0 5 0 C5 1.32 5 2.64 5 4 C3.35 4 1.7 4 0 4 C0 2.68 0 1.36 0 0 Z " fill="#A97450" transform="translate(22,16)"/>
<path d="M0 0 C1.65 0 3.3 0 5 0 C5 1.32 5 2.64 5 4 C3.35 4 1.7 4 0 4 C0 2.68 0 1.36 0 0 Z " fill="#A97450" transform="translate(11,16)"/>
<path d="M0 0 C0.99 0 1.98 0 3 0 C3 1.98 3 3.96 3 6 C2.01 6 1.02 6 0 6 C0 4.02 0 2.04 0 0 Z " fill="#A0AAB3" transform="translate(13,23)"/>
<path d="M0 0 C1.65 0 3.3 0 5 0 C4.01 0.495 4.01 0.495 3 1 C3 2.32 3 3.64 3 5 C2.01 5 1.02 5 0 5 C0 3.35 0 1.7 0 0 Z " fill="#D98867" transform="translate(7,9)"/>
</svg>
